<svg xmlns="http://www.w3.org/2000/svg" viewBox="0 0 800 500" role="img" aria-label="LGGNet visual summary">
  <rect width="800" height="500" fill="#f7f9fc"/>
  <text x="45" y="62" font-family="Arial,sans-serif" font-size="38" font-weight="700" fill="#145a4a">LGGNet</text>
  <text x="45" y="95" font-family="Arial,sans-serif" font-size="18" fill="#55756e">Local-global brain graph learning</text>
  <g fill="#e5f5ef" stroke="#23856c" stroke-width="3">
    <circle cx="170" cy="165" r="21"/><circle cx="120" cy="220" r="21"/><circle cx="215" cy="225" r="21"/>
    <circle cx="390" cy="150" r="21"/><circle cx="345" cy="220" r="21"/><circle cx="435" cy="225" r="21"/>
    <circle cx="610" cy="165" r="21"/><circle cx="565" cy="225" r="21"/><circle cx="655" cy="220" r="21"/>
  </g>
  <g stroke="#65a998" stroke-width="4"><line x1="170" y1="165" x2="120" y2="220"/><line x1="170" y1="165" x2="215" y2="225"/><line x1="120" y1="220" x2="215" y2="225"/><line x1="390" y1="150" x2="345" y2="220"/><line x1="390" y1="150" x2="435" y2="225"/><line x1="345" y1="220" x2="435" y2="225"/><line x1="610" y1="165" x2="565" y2="225"/><line x1="610" y1="165" x2="655" y2="220"/><line x1="565" y1="225" x2="655" y2="220"/></g>
  <g stroke="#145a4a" stroke-width="5" stroke-dasharray="9 7"><line x1="215" y1="225" x2="345" y2="220"/><line x1="435" y1="225" x2="565" y2="225"/></g>
  <text x="170" y="305" text-anchor="middle" font-family="Arial" font-size="17" fill="#145a4a">local region</text><text x="390" y="305" text-anchor="middle" font-family="Arial" font-size="17" fill="#145a4a">local region</text><text x="610" y="305" text-anchor="middle" font-family="Arial" font-size="17" fill="#145a4a">local region</text>
  <rect x="45" y="390" width="710" height="55" rx="12" fill="#e6f4f0"/>
  <text x="400" y="425" text-anchor="middle" font-family="Arial" font-size="22" fill="#145a4a">Neurophysiology-informed graph representations</text>
</svg>
